<svg id="Calque_1" data-name="Calque 1" xmlns="http://www.w3.org/2000/svg" xmlns:xlink="http://www.w3.org/1999/xlink" viewBox="0 0 393.99 393.99"><defs><linearGradient id="linear-gradient" x1="196.99" x2="196.99" y2="393.99" gradientUnits="userSpaceOnUse"><stop offset="0" stop-color="#b74848"/><stop offset="1" stop-color="#487cb5"/></linearGradient></defs><title>logo_mini</title><circle cx="196.99" cy="196.99" r="196.99" style="fill:url(#linear-gradient)"/><path d="M350.1,166.61c-3.78-10.4-14-35.92-31.94-54.17-15.37-15.65-29.87-27.3-51.31-31.12-9.15-1.63-18-4.26-27.16-4.27,0.5-.24,1-0.45,1.5-0.7,5.26-2.64,12.79-4.84,16.53-9.7,0.07-.1,2.09-3.37,2.09-3.37-0.33-.42-21.47,3.79-27.6,4.4-10.29,1-20.73,1.89-31.07,2.09a251.32,251.32,0,0,1-27.32-.87c0.83-.52,1.7-1,2.66-1.54,5.3-2.85,11.35-3.28,16.54-6,0.42-.21-32.41-6.82-61.42,6.48-15.71,7.21-26.66,34-26.56,40.69-4.89-5.82-5.44-14.36-6.77-21.57A0.65,0.65,0,0,0,97,87c-1.54,8.37-1.05,16.57,3.35,24l0.33,0.55c-3.42-1.6-6.85-3.11-10.17-4.56-6.18-2.7-18-5.83-23.8-.77-0.82.71,0.05,2.33,1.07,1.89,6.49-2.81,16.88,3.6,22.72,6,1.05,0.43,2.09.9,3.11,1.41-38.73,11.2-57,55.95-57.77,63.66,1.17,0.44,8.58-8.89,11.93-11.22l0.5-.34a49.28,49.28,0,0,0-3.33,14.6c-2.82,62,40.79,117.62,40.77,117.47,0.55-7.18-.39-70.54,11.68-92.62,4.11-6.94,13.2-25.59,15.82-28.26l2.17-2,0.54,0.57c7.82,8.11,16.89,15,25.78,21.82,7.88,6,17.74,8.92,26.89,12.1,7.73,2.69,13.75,5,21.25,3.2h0.08a1.36,1.36,0,0,0,.71-0.21c0.74-.2-17.31-4.17-19.1-14.51A65.5,65.5,0,0,0,185.07,204c10.12,1.93,20.95.68,31.17,0.53,9.8-.14,20.65-1.25,29.76-5.09,0.3-.12.3-0.68-0.08-0.63-3.26.36-41.27,3.24-55.42-.91-2-.58,78.06-17.89,106.51,12.4,23.89,25.43,31.43,83.51,29.54,87.86S368.26,216.61,350.1,166.61Z" style="fill:#f7f7f7"/><path d="M171.17,262c8.42,24.18,8.42,24.1-16.47,23.45-9.14-.24-18.26-0.15-26.88-3.84-9.28-8.26-13.08-18.58-11.65-30.9,0.37-3.2-.3-7.53,5-6.41C138.62,248,158.2,245.72,171.17,262Z" style="fill:#111;fill-rule:evenodd"/><path d="M161,266.77c5,14.36,5,14.31-9.78,13.92-5.43-.14-10.85-0.09-16-2.28a20.13,20.13,0,0,1-6.92-18.34c0.22-1.9-.17-4.47,3-3.81C141.63,258.43,153.26,257.09,161,266.77Z" style="fill:#fff;fill-rule:evenodd"/><path d="M236.64,262c-8.42,24.18-8.42,24.1,16.47,23.45,9.14-.24,18.27-0.15,26.88-3.84,9.28-8.26,13.08-18.58,11.65-30.9-0.37-3.2.29-7.53-5-6.41C269.19,248,249.61,245.72,236.64,262Z" style="fill:#111;fill-rule:evenodd"/><path d="M246.85,266.77c-5,14.36-5,14.31,9.78,13.92,5.43-.14,10.85-0.09,16-2.28a20.13,20.13,0,0,0,6.92-18.34c-0.23-1.9.17-4.47-3-3.81C266.18,258.43,254.55,257.09,246.85,266.77Z" style="fill:#fff;fill-rule:evenodd"/></svg>