<svg xmlns="http://www.w3.org/2000/svg" xmlns:xlink="http://www.w3.org/1999/xlink" viewBox="0 0 586.76 531.4"><defs><linearGradient id="linear-gradient" x1="286.22" x2="286.22" y2="531.4" gradientUnits="userSpaceOnUse"><stop offset="0" stop-color="#b74848"/><stop offset="1" stop-color="#487cb5"/></linearGradient></defs><title>logo</title><g style="isolation:isolate"><g id="Calque_1" data-name="Calque 1"><circle cx="286.22" cy="265.7" r="265.7" style="mix-blend-mode:multiply;fill:url(#linear-gradient)"/><path d="M337.69,425.5a1.69,1.69,0,0,1-1.39,1.88s-35.56,8.12-42.78,8.12-42.78-8.12-42.78-8.12a1.69,1.69,0,0,1-1.39-1.88h0a1.69,1.69,0,0,1,1.39-1.88l42.78,5.94,42.78-5.94a1.69,1.69,0,0,1,1.39,1.88h0Z" style="fill:#fff"/><path d="M430.21,136c-3.68-10.13-13.67-35-31.13-52.8-15-15.26-29.11-26.61-50-30.33-8.92-1.59-17.52-4.15-26.47-4.16,0.48-.23,1-0.44,1.46-0.68,5.13-2.57,12.46-4.71,16.11-9.45,0.07-.09,2-3.28,2-3.28-0.32-.41-20.92,3.69-26.91,4.28-10,1-20.21,1.85-30.28,2a244.79,244.79,0,0,1-26.63-.85c0.81-.51,1.66-1,2.59-1.51,5.16-2.78,11.06-3.2,16.12-5.82,0.41-.21-31.59-6.65-59.87,6.32-15.31,7-26,33.15-25.89,39.66-4.77-5.67-5.3-14-6.6-21a0.63,0.63,0,0,0-1.22,0c-1.5,8.15-1,16.15,3.27,23.4l0.32,0.53c-3.34-1.56-6.68-3-9.92-4.45-6-2.63-17.52-5.69-23.2-.75-0.79.69,0.05,2.27,1,1.85,6.33-2.74,16.46,3.51,22.15,5.81,1,0.42,2,.88,3,1.38-37.75,10.92-55.53,54.53-56.31,62,1.14,0.43,8.37-8.66,11.63-10.94L136,137a48.11,48.11,0,0,0-3.25,14.23c-2.75,60.38,39.75,114.64,39.73,114.49,0.54-7-.38-68.75,11.38-90.28,4-6.77,12.87-24.94,15.42-27.54l2.11-1.92,0.53,0.55c7.62,7.9,16.47,14.66,25.13,21.27,7.68,5.86,17.29,8.7,26.21,11.8,7.53,2.62,13.4,4.85,20.71,3.12h0.08a1.31,1.31,0,0,0,.69-0.2c0.72-.19-16.88-4.06-18.61-14.15a63.81,63.81,0,0,0,13.23,4.15c9.86,1.88,20.42.66,30.38,0.52,9.55-.13,20.13-1.22,29-5,0.29-.12.29-0.66-0.08-0.62-3.18.35-40.22,3.16-54-.88-1.94-.57,76.08-17.43,103.82,12.08,23.29,24.79,30.63,81.4,28.79,85.63S447.92,184.78,430.21,136Z" style="fill:#fff"/><path d="M255.81,229c8.2,23.57,8.21,23.49-16.06,22.85-8.91-.23-17.8-0.14-26.2-3.75-9-8.05-12.75-18.11-11.35-30.11,0.36-3.12-.29-7.34,4.89-6.25C224.08,215.36,243.17,213.16,255.81,229Z" style="fill-rule:evenodd"/><path d="M245.86,233.66c4.87,14,4.87,13.95-9.53,13.57-5.29-.14-10.57-0.08-15.56-2.22A19.62,19.62,0,0,1,214,227.13c0.22-1.85-.17-4.36,2.9-3.71C227,225.54,238.36,224.23,245.86,233.66Z" style="fill:#fff;fill-rule:evenodd"/><path d="M319.63,229c-8.2,23.57-8.21,23.49,16.06,22.85,8.91-.23,17.8-0.14,26.2-3.75,9-8.05,12.75-18.11,11.35-30.11-0.36-3.12.29-7.34-4.89-6.25C351.36,215.36,332.27,213.16,319.63,229Z" style="fill-rule:evenodd"/><path d="M329.58,233.66c-4.87,14-4.87,13.95,9.53,13.57,5.29-.14,10.57-0.08,15.56-2.22a19.62,19.62,0,0,0,6.74-17.88c-0.22-1.85.17-4.36-2.9-3.71C348.42,225.54,337.08,224.23,329.58,233.66Z" style="fill:#fff;fill-rule:evenodd"/><path d="M190.67,314.85c9.91,4.27,43.95,50.12,47.06,57.12s23.33,48.87,12.54,64.32c0,0-53.38-33.22-89.55-14.72-28,14.35-31.86,17.84-70.48,32.87-20.35,7.92-52,16-87.33,34.36-22.63,11.75,92.46-141.52,127.47-156.54S180.76,310.58,190.67,314.85Z" style="fill:#fff;fill-rule:evenodd"/><path d="M390.25,315.77C380.53,318.09,349,372,349,372s-23.33,48.87-12.54,64.32c0,0,53.38-33.22,89.55-14.71,28,14.35,31.85,17.84,70.47,32.87,20.35,7.92,52,16,87.33,34.36,22.63,11.75-92.46-141.52-127.47-156.54S400,313.44,390.25,315.77Z" style="fill:#fff;fill-rule:evenodd"/><ellipse cx="243.21" cy="423.3" rx="18.67" ry="14.93"/><ellipse cx="344.58" cy="424.08" rx="18.67" ry="14.93"/></g></g></svg>